<?xml version="1.0" encoding="utf-8"?>
<!-- Generator: Adobe Illustrator 16.0.0, SVG Export Plug-In . SVG Version: 6.00 Build 0)  -->
<!DOCTYPE svg PUBLIC "-//W3C//DTD SVG 1.1//EN" "http://www.w3.org/Graphics/SVG/1.1/DTD/svg11.dtd">
<svg version="1.1" id="Capa_1" xmlns="http://www.w3.org/2000/svg" xmlns:xlink="http://www.w3.org/1999/xlink" x="0px" y="0px"
	 width="62px" height="54px" viewBox="0 0 62 54" enable-background="new 0 0 62 54" xml:space="preserve">
<rect fill="none" width="62" height="54"/>
<path id="Path_1263_1_" fill="#136AAF" d="M33.639,38.132H21.514c-0.579,0-1.049,0.469-1.049,1.048
	c-0.001,0.58,0.468,1.05,1.048,1.05c0.001,0,0.001,0,0.001,0h12.125c0.58,0,1.049-0.47,1.049-1.049
	c0.041-0.539-0.363-1.008-0.902-1.049C33.737,38.128,33.688,38.128,33.639,38.132 M21.514,15.866h5.014
	c0.579,0,1.049-0.469,1.049-1.049s-0.47-1.049-1.049-1.049h-5.014c-0.579,0-1.049,0.47-1.049,1.049S20.936,15.866,21.514,15.866
	 M39.7,29.972H21.514c-0.579,0-1.049,0.469-1.049,1.048c-0.001,0.58,0.468,1.05,1.048,1.05c0.001,0,0.001,0,0.001,0H39.7
	c0.58,0,1.05-0.469,1.05-1.049c0-0.579-0.469-1.049-1.048-1.05C39.702,29.972,39.701,29.972,39.7,29.972 M20.465,22.861
	c0,0.579,0.47,1.049,1.049,1.049H39.7c0.58,0,1.049-0.47,1.049-1.049c0-0.58-0.47-1.049-1.049-1.049l0,0H21.514
	C20.97,21.887,20.542,22.315,20.465,22.861 M38.768,4.675H16.502c-2.242,0.027-4.053,1.838-4.08,4.08v36.488
	c0.027,2.242,1.838,4.053,4.08,4.08H44.83c2.242-0.027,4.053-1.838,4.08-4.08V15.866L38.768,4.675z M46.811,45.126
	c0.01,1.084-0.861,1.972-1.946,1.982c-0.012,0-0.023,0-0.035,0H16.502c-1.085,0.009-1.972-0.862-1.982-1.947
	c0-0.012,0-0.023,0-0.035V8.755c-0.01-1.085,0.862-1.972,1.947-1.981c0.012,0,0.023,0,0.035,0h18.186v10.142
	c-0.01,1.085,0.861,1.972,1.947,1.982c0.012,0,0.023,0,0.035,0h10.141V45.126z M36.67,16.799V6.656h1.049l9.092,10.143H36.67z"/>
</svg>
