<?xml version="1.0" encoding="utf-8"?>
<!-- Generator: Adobe Illustrator 16.0.0, SVG Export Plug-In . SVG Version: 6.00 Build 0)  -->
<!DOCTYPE svg PUBLIC "-//W3C//DTD SVG 1.1//EN" "http://www.w3.org/Graphics/SVG/1.1/DTD/svg11.dtd">
<svg version="1.1" id="Capa_1" xmlns="http://www.w3.org/2000/svg" xmlns:xlink="http://www.w3.org/1999/xlink" x="0px" y="0px"
	 width="62px" height="54px" viewBox="0 0 62 54" enable-background="new 0 0 62 54" xml:space="preserve">
<rect fill="none" width="62" height="54"/>
<g>
	<path id="Path_1251" fill="#1469AF" d="M43.59,45.229c-0.652,0-1.18,0.528-1.18,1.181l0,0v2.229c0,0.651,0.527,1.18,1.179,1.182
		c0.652,0,1.181-0.527,1.181-1.18v-0.002v-2.229C44.686,45.796,44.203,45.314,43.59,45.229 M11.59,36.049H8.18V6.409h36.458v3.41
		c0,0.652,0.527,1.181,1.18,1.182c0.652,0,1.181-0.528,1.181-1.18c0-0.001,0-0.002,0-0.002v-3.41c0.011-1.221-0.97-2.219-2.19-2.229
		c-0.013,0-0.025,0-0.039,0H8.18C6.964,4.216,5.986,5.193,5.95,6.409v29.64c-0.01,1.221,0.97,2.219,2.19,2.229
		c0.013,0,0.026,0,0.04,0h3.41c0.652,0,1.18-0.527,1.18-1.18C12.714,36.492,12.198,36.034,11.59,36.049 M27.59,45.229
		c-0.652,0-1.18,0.528-1.18,1.181v2.229c0,0.651,0.527,1.18,1.179,1.182c0.652,0,1.181-0.527,1.181-1.18v-0.002v-2.229
		C28.77,45.757,28.242,45.229,27.59,45.229 M23,24.639h25.049c0.652,0,1.18-0.528,1.18-1.18s-0.527-1.181-1.18-1.181H23
		c-0.652,0-1.18,0.528-1.18,1.181C21.95,24.114,22.344,24.639,23,24.639 M53.818,13.229H17.36c-1.221-0.011-2.218,0.969-2.229,2.19
		c0,0.013,0,0.026,0,0.04V45.1c-0.011,1.219,0.969,2.217,2.19,2.229c0.013,0,0.026,0,0.04,0H23c0.652,0,1.181-0.528,1.181-1.18l0,0
		c-0.001-1.883,1.524-3.41,3.407-3.412c1.884,0,3.411,1.524,3.412,3.408c0,0.002,0,0.002,0,0.004c0,0.651,0.529,1.18,1.18,1.18l0,0
		H39c0.65,0,1.18-0.528,1.18-1.18l0,0c0-1.883,1.524-3.41,3.408-3.412c1.883,0,3.411,1.524,3.412,3.408c0,0.002,0,0.002,0,0.004
		c0,0.651,0.529,1.18,1.182,1.18l0,0h5.639c1.221,0.012,2.218-0.969,2.229-2.189c0-0.013,0-0.025,0-0.039V15.589
		C56.068,14.328,55.08,13.282,53.818,13.229 M53.818,45.229h-4.721c-0.645-3.114-3.69-5.117-6.806-4.473
		c-2.25,0.465-4.007,2.223-4.474,4.473h-4.721c-0.645-3.114-3.69-5.117-6.806-4.473c-2.25,0.465-4.008,2.223-4.473,4.473H17.36
		v-29.64h36.458V45.229z M23,29.229h25.049c0.652,0.002,1.182-0.526,1.182-1.179c0-0.652-0.526-1.181-1.18-1.181
		c0,0-0.001,0-0.002,0H23c-0.652,0-1.18,0.528-1.18,1.179C21.95,28.704,22.344,29.229,23,29.229 M23,33.818h16
		c0.65,0,1.18-0.528,1.18-1.18c0-0.652-0.529-1.18-1.18-1.181H23c-0.652,0-1.18,0.528-1.18,1.181
		C21.95,33.294,22.344,33.818,23,33.818"/>
</g>
</svg>
